<svg xmlns="http://www.w3.org/2000/svg" xmlns:xlink="http://www.w3.org/1999/xlink" width="54" height="68" viewBox="0 0 54 68">
  <defs>
    <polygon id="ba_logo_tab_002684_r0g38b132-a" points="0 .237 54 .237 54 67.237 0 67.237"/>
  </defs>
  <g fill="none" fill-rule="evenodd">
    <mask id="ba_logo_tab_002684_r0g38b132-b" fill="#fff">
      <use xlink:href="#ba_logo_tab_002684_r0g38b132-a"/>
    </mask>
    <path fill="#002684" d="M0,0.236759582 L0,56.0779463 C0,56.0779463 9.59479529,67.2367596 26.9349264,67.2367596 C44.439454,67.2367596 54,56.0779463 54,56.0779463 L54,0.236759582 L0,0.236759582" mask="url(#ba_logo_tab_002684_r0g38b132-b)"/>
    <path fill="#FFFFFE" d="M32.3108885,14.6579268 C31.4890244,14.4250871 30.646777,14.2458188 29.7849303,14.1180314 L29.4517422,19.7372822 L23.9054007,19.7372822 L23.5722125,14.1180314 C22.7127178,14.2458188 21.8704704,14.427439 21.0486063,14.6602787 C20.7039199,18.2568815 21.8566202,27.1484321 15.0514808,31.3957317 L15.0514808,43.1393728 C15.0514808,43.1393728 19.1824913,47.5818815 26.6801394,47.5818815 C34.1759582,47.5818815 38.3067073,42.8542683 38.3067073,42.8542683 L38.3067073,31.3957317 C31.5018293,27.1484321 32.653223,18.2545296 32.3108885,14.6579268"/>
  </g>
</svg>
